<?xml version="1.0" standalone="no"?>
<!DOCTYPE svg PUBLIC "-//W3C//DTD SVG 20010904//EN"
 "http://www.w3.org/TR/2001/REC-SVG-20010904/DTD/svg10.dtd">
<svg version="1.0" xmlns="http://www.w3.org/2000/svg"
 width="518.000000pt" height="518.000000pt" viewBox="0 0 518.000000 518.000000"
 preserveAspectRatio="xMidYMid meet">
<metadata>
Created by potrace 1.11, written by Peter Selinger 2001-2013
</metadata>
<g transform="translate(0.000000,518.000000) scale(0.100000,-0.100000)"
fill="#000000" stroke="none">
<path d="M1725 5158 c2 -7 34 -116 70 -243 36 -126 72 -252 80 -280 39 -134
169 -586 181 -632 20 -78 74 -256 78 -260 3 -3 192 67 316 117 25 10 196 75
380 145 184 69 344 131 355 136 11 5 81 32 155 60 74 28 212 80 305 116 94 36
199 76 235 89 36 13 74 28 85 33 11 5 70 28 130 51 182 68 295 113 292 116 -2
2 -462 102 -507 111 -14 2 -54 11 -90 19 -36 8 -81 17 -100 20 -19 3 -38 8
-41 10 -3 2 -21 6 -39 9 -19 3 -95 19 -170 35 -75 16 -152 32 -171 35 -19 3
-42 8 -51 11 -9 3 -25 6 -35 8 -30 6 -394 84 -543 116 -74 16 -150 32 -169 35
-19 3 -37 7 -40 9 -3 2 -22 7 -41 10 -19 3 -96 19 -170 35 -74 16 -146 32
-160 35 -14 2 -89 18 -168 35 -160 35 -173 36 -167 19z"/>
<path d="M1485 4897 c-190 -256 -423 -570 -614 -828 -680 -917 -809 -1094
-806 -1098 2 -2 64 20 137 47 136 52 864 323 928 346 19 7 159 59 310 116 151
57 309 115 350 130 236 87 276 102 281 108 4 4 -16 84 -43 177 -27 94 -51 177
-53 185 -18 75 -299 1047 -304 1052 -4 4 -87 -101 -186 -235z"/>
<path d="M4415 4554 c-57 -24 -143 -58 -460 -178 -77 -30 -295 -113 -485 -186
-190 -73 -372 -143 -405 -155 -33 -12 -175 -66 -315 -120 -140 -54 -329 -126
-419 -160 l-163 -63 143 -118 c224 -186 631 -523 665 -553 18 -14 103 -84 190
-156 86 -71 309 -255 493 -408 185 -153 354 -293 376 -312 22 -18 123 -102
225 -186 102 -85 193 -160 202 -167 14 -11 16 106 16 1388 0 770 -1 1400 -2
1400 0 -1 -28 -12 -61 -26z"/>
<path d="M4534 3090 c0 -1174 2 -1308 16 -1296 8 7 42 35 75 62 33 27 65 54
70 60 6 6 98 84 205 175 107 90 207 175 222 189 l28 25 -24 85 c-22 77 -84
289 -211 725 -26 88 -73 250 -105 360 -198 687 -264 911 -269 917 -4 4 -7
-582 -7 -1302z"/>
<path d="M1870 3581 c-113 -42 -333 -125 -490 -183 -157 -59 -509 -190 -783
-292 -273 -102 -499 -186 -501 -186 -2 0 -20 -7 -39 -15 l-36 -15 237 -347
c131 -192 272 -400 315 -463 134 -197 287 -421 351 -515 34 -49 172 -251 305
-447 134 -197 247 -356 251 -353 4 2 10 21 13 42 5 30 63 320 82 404 2 9 6 33
9 54 4 20 8 40 10 44 2 3 7 22 10 41 3 19 26 134 51 255 25 121 47 231 50 244
4 23 19 95 31 151 2 14 12 59 20 100 8 41 19 91 24 110 5 19 11 49 13 65 4 25
89 440 102 496 2 9 6 33 9 54 4 20 8 40 10 44 2 3 7 22 10 41 3 19 8 46 11 59
2 14 30 149 61 300 31 152 58 287 61 301 2 14 8 40 13 58 4 17 8 32 7 31 -1 0
-94 -35 -207 -78z"/>
<path d="M2130 3646 c0 -3 -12 -61 -26 -128 -14 -68 -28 -132 -30 -143 -2 -11
-20 -99 -39 -195 -36 -174 -40 -192 -49 -240 -2 -14 -16 -79 -30 -145 -14 -66
-27 -131 -30 -145 -3 -14 -7 -36 -10 -50 -3 -14 -10 -47 -16 -75 -5 -27 -12
-61 -15 -75 -3 -14 -7 -37 -10 -53 -3 -15 -12 -60 -21 -100 -8 -39 -17 -81
-20 -92 -10 -48 -35 -172 -39 -195 -3 -14 -9 -47 -15 -75 -6 -27 -12 -60 -14
-71 -3 -12 -13 -64 -25 -115 -11 -52 -22 -105 -25 -119 -2 -14 -25 -128 -51
-255 -26 -126 -49 -238 -51 -248 -2 -10 -5 -26 -8 -35 -3 -9 -8 -33 -11 -52
-3 -19 -15 -78 -26 -130 -11 -52 -22 -111 -25 -130 -3 -19 -8 -38 -11 -42 -9
-16 30 -6 198 53 179 62 422 146 519 179 30 10 161 55 290 100 129 45 298 103
375 130 284 97 927 319 1160 399 83 29 197 68 255 88 58 20 107 38 110 40 4 4
-16 23 -95 88 -172 143 -492 408 -590 489 -154 126 -211 174 -255 211 -19 17
-73 62 -120 100 -47 38 -87 71 -90 74 -3 3 -26 23 -52 44 -26 21 -53 43 -60
50 -7 7 -36 30 -63 52 -28 21 -52 42 -55 45 -3 3 -95 79 -205 170 -110 90
-229 189 -265 220 -36 30 -88 73 -114 95 -68 55 -230 190 -293 243 -29 25 -53
42 -53 38z"/>
<path d="M113 2640 c13 -35 318 -777 327 -795 5 -11 39 -94 75 -185 37 -91 74
-181 82 -200 8 -19 19 -44 24 -55 4 -11 63 -155 130 -320 67 -165 124 -303
128 -307 6 -7 48 -14 136 -22 56 -6 140 -14 200 -21 22 -2 72 -7 110 -10 39
-4 78 -9 88 -11 9 -3 17 -2 17 1 0 6 -132 202 -385 573 -44 64 -143 209 -219
322 -77 113 -236 347 -354 520 -119 173 -244 358 -280 410 -67 99 -89 127 -79
100z"/>
<path d="M5008 2112 c-1 -4 -46 -43 -98 -87 -52 -44 -100 -84 -106 -90 -6 -5
-35 -30 -64 -55 -29 -25 -89 -76 -133 -113 l-80 -69 -338 -578 c-392 -673
-377 -645 -303 -544 11 14 47 63 80 107 66 88 314 424 404 547 30 41 61 82 67
90 7 8 119 159 249 335 131 176 261 353 291 393 30 39 49 72 44 72 -5 0 -11
-3 -13 -8z"/>
<path d="M4315 1623 c-104 -37 -411 -143 -920 -318 -165 -57 -426 -147 -580
-200 -154 -53 -350 -121 -435 -150 -85 -29 -281 -97 -435 -150 -154 -54 -297
-102 -318 -108 -20 -6 -37 -14 -37 -17 0 -3 24 -14 53 -24 455 -160 595 -209
612 -216 11 -5 34 -13 50 -18 17 -6 102 -36 190 -67 88 -31 171 -61 185 -65
14 -5 97 -34 185 -65 210 -75 323 -114 477 -169 l128 -45 28 42 c31 46 85 137
207 347 43 74 90 155 105 180 15 25 71 122 125 215 54 94 108 186 120 205 12
19 97 164 188 322 91 158 173 299 183 313 22 33 14 32 -111 -12z"/>
<path d="M1185 675 c9 -4 122 -38 645 -190 255 -75 545 -161 605 -179 27 -8
51 -14 52 -12 3 3 -22 13 -212 79 -305 107 -457 161 -515 182 -187 68 -269 94
-305 99 -109 14 -285 28 -270 21z"/>
</g>
</svg>
