<?xml version="1.0" encoding="UTF-8" standalone="no"?>
<svg width="93px" height="92px" viewBox="0 0 93 92" version="1.1" xmlns="http://www.w3.org/2000/svg" xmlns:xlink="http://www.w3.org/1999/xlink">
    <!-- Generator: Sketch 41 (35326) - http://www.bohemiancoding.com/sketch -->
    <title>noun_20125_cc</title>
    <desc>Created with Sketch.</desc>
    <defs></defs>
    <g id="Page-1" stroke="none" stroke-width="1" fill="none" fill-rule="evenodd">
        <g id="noun_20125_cc" fill="#FFFFFF">
            <polygon id="Shape" points="27.917 78.868 80.112 61.066 38.654 27.079"></polygon>
            <polygon id="Shape" points="77.891 10.657 79.146 10.141 31.306 0.075 38.663 25.509"></polygon>
            <polygon id="Shape" points="80.625 10.614 79.001 11.282 79.009 11.303 39.318 26.33 80.625 60.193"></polygon>
            <polygon id="Shape" points="30.408 0.573 1.484 39.216 37.723 25.86"></polygon>
            <polygon id="Shape" points="68.796 83.147 90.758 53.799 81.512 61.579"></polygon>
            <polygon id="Shape" points="20.979 79.508 47.157 87.115 27.145 80.117"></polygon>
            <polygon id="Shape" points="81.625 13.348 81.625 60.176 92.662 50.889"></polygon>
            <polygon id="Shape" points="28.782 79.631 62.583 91.45 63.325 90.458 80.009 62.159"></polygon>
            <polygon id="Shape" points="2.269 44.243 16.277 78.037 26.227 79.021"></polygon>
            <polygon id="Shape" points="37.66 26.949 0.902 40.497 26.998 78.378"></polygon>
        </g>
    </g>
</svg>